<svg width="21" height="12" viewBox="0 0 21 12" fill="none" xmlns="http://www.w3.org/2000/svg">
<path id="Vector" d="M0.450195 11.4729V9.4729C1.08353 9.4729 1.55453 9.30623 1.8632 8.9729C2.17186 8.63957 2.81753 8.4729 3.8002 8.4729C4.78353 8.4729 5.42953 8.63957 5.7382 8.9729C6.04686 9.30623 6.50086 9.4729 7.10019 9.4729C7.73353 9.4729 8.20453 9.30623 8.5132 8.9729C8.82186 8.63957 9.46753 8.4729 10.4502 8.4729C11.4002 8.4729 12.0462 8.63957 12.3882 8.9729C12.7302 9.30623 13.2009 9.4729 13.8002 9.4729C14.4335 9.4729 14.8962 9.30623 15.1882 8.9729C15.4802 8.63957 16.1175 8.4729 17.1002 8.4729C18.0835 8.4729 18.7295 8.63957 19.0382 8.9729C19.3469 9.30623 19.8175 9.4729 20.4502 9.4729V11.4729C19.5002 11.4729 18.8545 11.3062 18.5132 10.9729C18.1719 10.6396 17.7009 10.4729 17.1002 10.4729C16.5002 10.4729 16.0462 10.6396 15.7382 10.9729C15.4302 11.3062 14.7842 11.4729 13.8002 11.4729C12.8502 11.4729 12.2045 11.3062 11.8632 10.9729C11.5219 10.6396 11.0509 10.4729 10.4502 10.4729C9.81686 10.4729 9.34586 10.6396 9.0372 10.9729C8.72853 11.3062 8.08286 11.4729 7.10019 11.4729C6.11686 11.4729 5.4792 11.3062 5.1872 10.9729C4.8952 10.6396 4.43286 10.4729 3.8002 10.4729C3.16686 10.4729 2.6962 10.6396 2.3882 10.9729C2.0802 11.3062 1.4342 11.4729 0.450195 11.4729ZM0.450195 7.4729V5.4729C1.08353 5.4729 1.55453 5.30623 1.8632 4.9729C2.17186 4.63957 2.81753 4.4729 3.8002 4.4729C4.7502 4.4729 5.38786 4.63957 5.7132 4.9729C6.03853 5.30623 6.50086 5.4729 7.10019 5.4729C7.73353 5.4729 8.2042 5.30623 8.5122 4.9729C8.8202 4.63957 9.4662 4.4729 10.4502 4.4729C11.4002 4.4729 12.0419 4.63957 12.3752 4.9729C12.7085 5.30623 13.1669 5.4729 13.7502 5.4729C14.3835 5.4729 14.8542 5.30623 15.1622 4.9729C15.4702 4.63957 16.1162 4.4729 17.1002 4.4729C18.0502 4.4729 18.6962 4.63957 19.0382 4.9729C19.3802 5.30623 19.8509 5.4729 20.4502 5.4729V7.4729C19.4669 7.4729 18.8125 7.30623 18.4872 6.9729C18.1619 6.63957 17.6995 6.4729 17.1002 6.4729C16.5002 6.4729 16.0462 6.63957 15.7382 6.9729C15.4302 7.30623 14.7842 7.4729 13.8002 7.4729C12.8502 7.4729 12.2045 7.30623 11.8632 6.9729C11.5219 6.63957 11.0509 6.4729 10.4502 6.4729C9.81686 6.4729 9.3542 6.63957 9.0622 6.9729C8.7702 7.30623 8.13286 7.4729 7.1502 7.4729C6.16686 7.4729 5.51286 7.30623 5.1882 6.9729C4.86353 6.63957 4.40086 6.4729 3.8002 6.4729C3.2002 6.4729 2.72953 6.63957 2.3882 6.9729C2.04686 7.30623 1.40086 7.4729 0.450195 7.4729ZM0.450195 3.4729V1.4729C1.08353 1.4729 1.55453 1.30623 1.8632 0.9729C2.17186 0.639567 2.81753 0.4729 3.8002 0.4729C4.7502 0.4729 5.38786 0.639567 5.7132 0.9729C6.03853 1.30623 6.50086 1.4729 7.10019 1.4729C7.73353 1.4729 8.2042 1.30623 8.5122 0.9729C8.8202 0.639567 9.4662 0.4729 10.4502 0.4729C11.4002 0.4729 12.0419 0.639567 12.3752 0.9729C12.7085 1.30623 13.1669 1.4729 13.7502 1.4729C14.3835 1.4729 14.8542 1.30623 15.1622 0.9729C15.4702 0.639567 16.1162 0.4729 17.1002 0.4729C18.0502 0.4729 18.6962 0.639567 19.0382 0.9729C19.3802 1.30623 19.8509 1.4729 20.4502 1.4729V3.4729C19.4669 3.4729 18.8125 3.30623 18.4872 2.9729C18.1619 2.63957 17.6995 2.4729 17.1002 2.4729C16.5002 2.4729 16.0462 2.63957 15.7382 2.9729C15.4302 3.30623 14.7842 3.4729 13.8002 3.4729C12.8502 3.4729 12.2045 3.30623 11.8632 2.9729C11.5219 2.63957 11.0509 2.4729 10.4502 2.4729C9.81686 2.4729 9.3542 2.63957 9.0622 2.9729C8.7702 3.30623 8.13286 3.4729 7.1502 3.4729C6.16686 3.4729 5.51286 3.30623 5.1882 2.9729C4.86353 2.63957 4.40086 2.4729 3.8002 2.4729C3.2002 2.4729 2.72953 2.63957 2.3882 2.9729C2.04686 3.30623 1.40086 3.4729 0.450195 3.4729Z" fill="black"/>
</svg>
