<svg width="16" height="18" viewBox="0 0 16 18" fill="none" xmlns="http://www.w3.org/2000/svg">
<path id="Vector" d="M7.61642 1.0925L6.57588 0.4729L6.37769 1.66204C6.06222 3.53971 4.77146 5.28444 3.34773 6.51051C0.560576 8.91176 -0.0497083 11.5215 0.813278 13.6757C1.6391 15.7372 3.73505 17.1487 5.86237 17.3843L6.35456 17.4384C5.1373 16.699 4.35607 14.9715 4.62859 13.6806C4.89781 12.4119 5.81612 11.2236 7.58009 10.1272L8.4695 9.57568L8.80148 10.5646C8.9972 11.1489 9.33579 11.6183 9.68016 12.0951C9.84532 12.3249 10.013 12.5571 10.1666 12.8042C10.6976 13.6617 10.838 14.6154 10.4952 15.5616C10.1831 16.4216 9.66777 17.0979 8.95921 17.4729L9.76026 17.3843C11.7571 17.1635 13.2229 16.4848 14.1751 15.3498C15.119 14.2247 15.4502 12.7763 15.4502 11.2342C15.4502 9.79808 14.8564 8.3176 14.1561 7.08579C13.3353 5.64307 12.2642 4.4449 11.0948 3.28367C10.8925 3.68579 10.9082 3.84828 10.4919 4.49414C9.95168 3.06766 8.93712 1.86747 7.61642 1.0925Z" fill="black"/>
</svg>
