<svg width="18" height="19" viewBox="0 0 18 19" fill="none" xmlns="http://www.w3.org/2000/svg">
<path id="Vector" d="M16.2314 11.7811L16.9618 11.3763L16.1543 9.91142L15.4239 10.3162C14.8637 10.6268 14.3675 11.0412 13.9614 11.5372L10.6198 9.60253L13.9618 7.66781C14.3679 8.16386 14.8641 8.57821 15.4242 8.8889L16.1547 9.29364L16.9622 7.82872L16.2317 7.42397C15.9384 7.26158 15.6708 7.05647 15.4375 6.81533L17.4502 5.64826L16.6154 4.20083L14.6042 5.3641C14.512 5.04081 14.4682 4.70555 14.4744 4.36935L14.49 3.53247L12.8204 3.50127L12.8048 4.33816C12.793 4.97919 12.9023 5.61666 13.127 6.21696L9.78502 8.15282V4.28376C10.4165 4.17906 11.0224 3.95537 11.5708 3.62452L12.2857 3.19277L11.4239 1.75904L10.709 2.19079C10.4216 2.36401 10.1103 2.49361 9.78502 2.57538V0.4729H8.11537V2.57538C7.79013 2.49361 7.47875 2.36401 7.19138 2.19079L6.47647 1.75904L5.6147 3.19277L6.32962 3.62452C6.87799 3.95537 7.48393 4.17906 8.11537 4.28376V8.15282L4.77343 6.21696C4.99877 5.61629 5.1086 4.97827 5.09712 4.33664L5.08156 3.49975L3.41191 3.53095L3.42747 4.36783C3.43369 4.70403 3.38995 5.03929 3.2977 5.36258L1.28502 4.20083L0.450195 5.65016L2.46325 6.81571C2.23 7.05685 1.96234 7.26196 1.66903 7.42435L0.938566 7.82872L1.74607 9.29364L2.47653 8.8889C3.03664 8.57821 3.53289 8.16386 3.93899 7.66781L7.28055 9.60253L3.93861 11.5372C3.53252 11.0412 3.03626 10.6268 2.47616 10.3162L1.74607 9.91142L0.938566 11.3763L1.66903 11.7811C1.96234 11.9435 2.23 12.1486 2.46325 12.3897L0.450195 13.5587L1.28502 15.008L3.29807 13.8429C3.39033 14.1662 3.43407 14.5014 3.42785 14.8376L3.41229 15.6745L5.08194 15.7057L5.09749 14.8688C5.1089 14.227 4.99894 13.5889 4.77343 12.9881L8.11537 11.0522V14.9213C7.48393 15.026 6.87799 15.2497 6.32962 15.5805L5.6147 16.0123L6.47647 17.446L7.19138 17.0143C7.47875 16.841 7.79013 16.7114 8.11537 16.6297V18.7322H9.78502V16.6297C10.1103 16.7114 10.4216 16.841 10.709 17.0143L11.4239 17.446L12.2857 16.0123L11.5708 15.5805C11.0224 15.2497 10.4165 15.026 9.78502 14.9213V11.0522L13.127 12.9881C12.9016 13.5888 12.7918 14.2268 12.8033 14.8684L12.8188 15.7053L14.4885 15.6741L14.4729 14.8372C14.467 14.5004 14.5113 14.1647 14.6042 13.841L16.6154 15.0061L17.4502 13.5587L15.439 12.3913C15.6716 12.1497 15.9386 11.9441 16.2314 11.7811Z" fill="black"/>
</svg>
