<svg width="26" height="24" viewBox="0 0 26 24" fill="none" xmlns="http://www.w3.org/2000/svg">
<g id="Group 4487026">
<path id="Polygon 3" d="M16.5588 0.804932L24.2239 17.5046H8.89379L16.5588 0.804932Z" fill="#FFFCFC"/>
<path id="Polygon 2" d="M9.30101 0.4729L16.966 17.1726H1.63598L9.30101 0.4729Z" fill="#FFFCFC"/>
<path id="Polygon 4" d="M5.7533 7.91309L10.3459 17.5345H1.16068L5.7533 7.91309Z" fill="#2B2323"/>
<path id="Polygon 8" d="M13.2724 8.01294L17.8466 17.4848L13.3014 17.5558L8.69824 17.4848L13.2724 8.01294Z" fill="#2B2323"/>
<path id="Polygon 5" d="M8.50266 7.91309L12.8681 17.5345H4.13725L8.50266 7.91309Z" fill="#2B2323"/>
<path id="Polygon 6" d="M13.1499 7.91309L18.9837 17H6.95508L13.1499 7.91309Z" fill="#2B2323"/>
<path id="Polygon 7" d="M19.881 7.92123L24.2684 17.5339H13.6338L19.881 7.92123Z" fill="#2B2323"/>
<path id="Polygon 9" d="M17.0976 7.59375L22.9314 17.0874H11.2638L17.0976 7.59375Z" fill="#2B2323"/>
</g>
</svg>
