<svg width="22" height="29" viewBox="0 0 22 29" fill="none" xmlns="http://www.w3.org/2000/svg">
<path id="Vector" d="M11 0C8.08363 0.00332158 5.28766 1.16792 3.22548 3.23831C1.1633 5.3087 0.00330842 8.11579 0 11.0438C0 20.4937 10 27.6307 10.4263 27.9294C10.5944 28.0477 10.7947 28.1111 11 28.1111C11.2053 28.1111 11.4056 28.0477 11.5737 27.9294C12 27.6307 22 20.4937 22 11.0438C21.9967 8.11579 20.8367 5.3087 18.7745 3.23831C16.7123 1.16792 13.9164 0.00332158 11 0ZM11 7.02785C11.7911 7.02785 12.5645 7.26338 13.2223 7.70465C13.8801 8.14593 14.3928 8.77312 14.6955 9.50694C14.9983 10.2407 15.0775 11.0482 14.9231 11.8272C14.7688 12.6062 14.3878 13.3218 13.8284 13.8834C13.269 14.4451 12.5563 14.8276 11.7804 14.9825C11.0044 15.1375 10.2002 15.0579 9.46927 14.754C8.73836 14.45 8.11365 13.9353 7.67412 13.2749C7.2346 12.6145 7 11.838 7 11.0438C7 9.97867 7.42143 8.95721 8.17157 8.20408C8.92172 7.45095 9.93913 7.02785 11 7.02785Z" fill="black"/>
</svg>
