<svg width="24" height="24" viewBox="0 0 24 24" fill="none" xmlns="http://www.w3.org/2000/svg">
<path id="Vector" d="M23 21.2812V9.59375C23 9.38029 22.9503 9.16976 22.8548 8.97883C22.7594 8.78791 22.6208 8.62183 22.45 8.49375L12.825 1.275C12.587 1.09649 12.2975 1 12 1C11.7025 1 11.413 1.09649 11.175 1.275L1.55 8.49375C1.37923 8.62183 1.24063 8.78791 1.14516 8.97883C1.0497 9.16976 1 9.38029 1 9.59375V21.2812C1 21.6459 1.14487 21.9957 1.40273 22.2535C1.66059 22.5114 2.01033 22.6562 2.375 22.6562H7.875C8.23967 22.6562 8.58941 22.5114 8.84727 22.2535C9.10513 21.9957 9.25 21.6459 9.25 21.2812V17.1562C9.25 16.7916 9.39487 16.4418 9.65273 16.184C9.91059 15.9261 10.2603 15.7812 10.625 15.7812H13.375C13.7397 15.7812 14.0894 15.9261 14.3473 16.184C14.6051 16.4418 14.75 16.7916 14.75 17.1562V21.2812C14.75 21.6459 14.8949 21.9957 15.1527 22.2535C15.4106 22.5114 15.7603 22.6562 16.125 22.6562H21.625C21.9897 22.6562 22.3394 22.5114 22.5973 22.2535C22.8551 21.9957 23 21.6459 23 21.2812Z" fill="black" stroke="black" stroke-width="2" stroke-linecap="round" stroke-linejoin="round"/>
</svg>
