<svg width="22" height="28" viewBox="0 0 22 28" fill="none" xmlns="http://www.w3.org/2000/svg">
<path id="Vector" d="M18.7 14.3C19.5752 14.3 20.4146 14.6477 21.0335 15.2665C21.6523 15.8854 22 16.7248 22 17.6V18.7C22 23.0362 17.908 27.5 11 27.5C4.092 27.5 0 23.0362 0 18.7V17.6C0 16.7248 0.347678 15.8854 0.966548 15.2665C1.58542 14.6477 2.42479 14.3 3.3 14.3H18.7ZM11 0C12.6046 0 14.1434 0.637409 15.278 1.772C16.4126 2.9066 17.05 4.44544 17.05 6.05C17.05 7.65456 16.4126 9.1934 15.278 10.328C14.1434 11.4626 12.6046 12.1 11 12.1C9.39544 12.1 7.8566 11.4626 6.722 10.328C5.58741 9.1934 4.95 7.65456 4.95 6.05C4.95 4.44544 5.58741 2.9066 6.722 1.772C7.8566 0.637409 9.39544 0 11 0Z" fill="black"/>
</svg>
