<svg width="22" height="22" viewBox="0 0 22 22" fill="none" xmlns="http://www.w3.org/2000/svg">
<path id="Vector" d="M19.5556 0H2.44444C1.1 0 0 1.1 0 2.44444V19.5556C0 20.9 1.1 22 2.44444 22H19.5556C20.9 22 22 20.9 22 19.5556V2.44444C22 1.1 20.9 0 19.5556 0ZM12.2222 17.1111H6.11111C5.43889 17.1111 4.88889 16.5611 4.88889 15.8889C4.88889 15.2167 5.43889 14.6667 6.11111 14.6667H12.2222C12.8944 14.6667 13.4444 15.2167 13.4444 15.8889C13.4444 16.5611 12.8944 17.1111 12.2222 17.1111ZM15.8889 12.2222H6.11111C5.43889 12.2222 4.88889 11.6722 4.88889 11C4.88889 10.3278 5.43889 9.77778 6.11111 9.77778H15.8889C16.5611 9.77778 17.1111 10.3278 17.1111 11C17.1111 11.6722 16.5611 12.2222 15.8889 12.2222ZM15.8889 7.33333H6.11111C5.43889 7.33333 4.88889 6.78333 4.88889 6.11111C4.88889 5.43889 5.43889 4.88889 6.11111 4.88889H15.8889C16.5611 4.88889 17.1111 5.43889 17.1111 6.11111C17.1111 6.78333 16.5611 7.33333 15.8889 7.33333Z" fill="black"/>
</svg>
