<svg width="19" height="18" viewBox="0 0 19 18" fill="none" xmlns="http://www.w3.org/2000/svg">
<path id="Vector" d="M17.0002 16.3176L13.381 12.6985M13.381 12.6985C14.0001 12.0794 14.4912 11.3445 14.8262 10.5356C15.1613 9.72673 15.3337 8.8598 15.3337 7.9843C15.3337 7.10879 15.1613 6.24186 14.8262 5.433C14.4912 4.62414 14.0001 3.88919 13.381 3.27012C12.762 2.65105 12.027 2.15997 11.2181 1.82493C10.4093 1.48989 9.54236 1.31744 8.66685 1.31744C7.79135 1.31744 6.92442 1.48989 6.11556 1.82493C5.3067 2.15997 4.57175 2.65105 3.95268 3.27012C2.7024 4.5204 2 6.21614 2 7.9843C2 9.75246 2.7024 11.4482 3.95268 12.6985C5.20295 13.9488 6.89869 14.6512 8.66685 14.6512C10.435 14.6512 12.1308 13.9488 13.381 12.6985Z" stroke="black" stroke-width="2.08334" stroke-linecap="round" stroke-linejoin="round"/>
</svg>
