<svg width="21" height="19" viewBox="0 0 21 19" fill="none" xmlns="http://www.w3.org/2000/svg">
<g id="Layer 20">
<g id="Layer 2">
<g id="Layer 19">
<path id="Vector" d="M14.8505 6.26643C14.8937 5.70979 15.0739 5.1798 15.3692 4.74075C15.6646 4.30171 16.0623 3.97249 16.5143 3.79303C16.9662 3.61357 17.4529 3.59159 17.9154 3.72975C18.3778 3.86791 18.796 4.16028 19.1193 4.57138C19.4427 4.98248 19.6572 5.49464 19.7369 6.04573C19.8165 6.59682 19.758 7.16315 19.5682 7.67601C19.3785 8.18887 19.0657 8.62621 18.6679 8.93498C18.2701 9.24375 17.8044 9.41067 17.3272 9.4155H2.41113" stroke="black" stroke-width="1.45" stroke-linecap="round" stroke-linejoin="round"/>
<path id="Vector_2" d="M7.28648 3.50947C7.32968 2.95542 7.50922 2.42797 7.80332 1.99108C8.09742 1.55419 8.49344 1.22664 8.94335 1.04817C9.39326 0.869696 9.87772 0.847966 10.338 0.985615C10.7982 1.12326 11.2145 1.41438 11.5362 1.82364C11.858 2.23291 12.0715 2.74273 12.1507 3.29129C12.23 3.83984 12.1716 4.40354 11.9827 4.91401C11.7938 5.42448 11.4825 5.85979 11.0866 6.16713C10.6906 6.47447 10.227 6.64063 9.75204 6.64547H1.0166" stroke="black" stroke-width="1.45" stroke-linecap="round" stroke-linejoin="round"/>
<path id="Vector_3" d="M11.7601 15.3347C11.8055 15.8911 11.9877 16.4201 12.2847 16.8575C12.5816 17.295 12.9806 17.6221 13.4332 17.7992C13.8858 17.9763 14.3725 17.9958 14.8344 17.8553C15.2962 17.7148 15.7133 17.4203 16.0351 17.0076C16.3569 16.5949 16.5695 16.0818 16.6472 15.5303C16.7249 14.9789 16.6642 14.4129 16.4727 13.901C16.2811 13.3892 15.9668 12.9534 15.568 12.6466C15.1691 12.3398 14.7028 12.1751 14.2257 12.1726H5.49023" stroke="black" stroke-width="1.45" stroke-linecap="round" stroke-linejoin="round"/>
</g>
</g>
</g>
</svg>
