<svg width="54" height="54" viewBox="0 0 54 54" fill="none" xmlns="http://www.w3.org/2000/svg">
<g id="Group 4487059">
<g id="Ellipse 1161" filter="url(#filter0_d_786_1666)">
<circle cx="27" cy="27" r="19" fill="#D54040"/>
</g>
<path id="Vector" d="M26.2308 15.6296V14.8148C26.2308 14.5987 26.3118 14.3915 26.4561 14.2387C26.6003 14.0858 26.796 14 27 14C27.204 14 27.3997 14.0858 27.5439 14.2387C27.6882 14.3915 27.7692 14.5987 27.7692 14.8148V15.6296C27.7692 15.8457 27.6882 16.053 27.5439 16.2058C27.3997 16.3586 27.204 16.4444 27 16.4444C26.796 16.4444 26.6003 16.3586 26.4561 16.2058C26.3118 16.053 26.2308 15.8457 26.2308 15.6296ZM33.9231 18.8889C34.0241 18.889 34.1242 18.868 34.2176 18.8271C34.311 18.7862 34.3958 18.7262 34.4673 18.6506L35.2365 17.8357C35.3809 17.6828 35.462 17.4755 35.462 17.2593C35.462 17.043 35.3809 16.8357 35.2365 16.6828C35.0922 16.5299 34.8964 16.444 34.6923 16.444C34.4882 16.444 34.2924 16.5299 34.1481 16.6828L33.3788 17.4976C33.2711 17.6115 33.1978 17.7568 33.1681 17.9149C33.1383 18.0731 33.1536 18.237 33.2118 18.386C33.2701 18.5349 33.3688 18.6622 33.4954 18.7518C33.622 18.8413 33.7708 18.889 33.9231 18.8889ZM19.5327 18.6506C19.677 18.8034 19.8728 18.8893 20.0769 18.8893C20.281 18.8893 20.4768 18.8034 20.6212 18.6506C20.7655 18.4977 20.8466 18.2903 20.8466 18.0741C20.8466 17.8579 20.7655 17.6505 20.6212 17.4976L19.8519 16.6828C19.7076 16.5299 19.5118 16.444 19.3077 16.444C19.1036 16.444 18.9078 16.5299 18.7635 16.6828C18.6191 16.8357 18.538 17.043 18.538 17.2593C18.538 17.4755 18.6191 17.6828 18.7635 17.8357L19.5327 18.6506ZM37 31.9259V34.3704C37 34.8026 36.8379 35.2171 36.5494 35.5227C36.2609 35.8283 35.8696 36 35.4615 36H18.5385C18.1304 36 17.7391 35.8283 17.4506 35.5227C17.1621 35.2171 17 34.8026 17 34.3704V31.9259C17 31.4937 17.1621 31.0792 17.4506 30.7736C17.7391 30.468 18.1304 30.2963 18.5385 30.2963V27.037C18.5384 25.8542 18.7594 24.6831 19.1887 23.5912C19.6179 22.4993 20.247 21.5082 21.0395 20.675C21.8321 19.8418 22.7725 19.1831 23.8065 18.7367C24.8406 18.2903 25.9478 18.0651 27.0644 18.0741C31.6942 18.1107 35.4615 22.1777 35.4615 27.1389V30.2963C35.8696 30.2963 36.2609 30.468 36.5494 30.7736C36.8379 31.0792 37 31.4937 37 31.9259ZM27.6423 22.9518C29.4683 23.2767 30.8462 25.0326 30.8462 27.037C30.8462 27.2531 30.9272 27.4604 31.0715 27.6132C31.2157 27.766 31.4114 27.8519 31.6154 27.8519C31.8194 27.8519 32.0151 27.766 32.1593 27.6132C32.3036 27.4604 32.3846 27.2531 32.3846 27.037C32.3846 24.2463 30.4548 21.7988 27.8962 21.3445C27.7961 21.3258 27.6935 21.3282 27.5943 21.3517C27.4952 21.3752 27.4014 21.4193 27.3184 21.4814C27.2354 21.5435 27.1648 21.6224 27.1108 21.7135C27.0567 21.8047 27.0203 21.9063 27.0035 22.0125C26.9867 22.1186 26.99 22.2272 27.0131 22.3321C27.0362 22.4369 27.0787 22.5358 27.1381 22.6232C27.1974 22.7105 27.2726 22.7845 27.3591 22.8409C27.4457 22.8973 27.5419 22.935 27.6423 22.9518ZM35.4615 34.3704V31.9259H18.5385V34.3704H35.4615Z" fill="white"/>
</g>
<defs>
<filter id="filter0_d_786_1666" x="0" y="0" width="54" height="54" filterUnits="userSpaceOnUse" color-interpolation-filters="sRGB">
<feFlood flood-opacity="0" result="BackgroundImageFix"/>
<feColorMatrix in="SourceAlpha" type="matrix" values="0 0 0 0 0 0 0 0 0 0 0 0 0 0 0 0 0 0 127 0" result="hardAlpha"/>
<feOffset/>
<feGaussianBlur stdDeviation="4"/>
<feComposite in2="hardAlpha" operator="out"/>
<feColorMatrix type="matrix" values="0 0 0 0 0 0 0 0 0 0 0 0 0 0 0 0 0 0 0.25 0"/>
<feBlend mode="normal" in2="BackgroundImageFix" result="effect1_dropShadow_786_1666"/>
<feBlend mode="normal" in="SourceGraphic" in2="effect1_dropShadow_786_1666" result="shape"/>
</filter>
</defs>
</svg>
